HIERARCHY
ROOT root
{
	OFFSET 0.000000 0.000000 0.000000
	CHANNELS 6 Xposition Yposition Zposition Zrotation Yrotation Xrotation
	JOINT lhip
	{
		OFFSET 0.058581 -0.082280 -0.017664
		CHANNELS 3 Zrotation Yrotation Xrotation
		JOINT lknee
		{
			OFFSET 0.043451 -0.386469 0.008037
			CHANNELS 3 Zrotation Yrotation Xrotation
			JOINT lankle
			{
				OFFSET -0.014790 -0.426874 -0.037428
				CHANNELS 3 Zrotation Yrotation Xrotation
				JOINT ltoe
				{
					OFFSET 0.041054 -0.060286 0.122042
					CHANNELS 3 Zrotation Yrotation Xrotation
					End Site
					{
						OFFSET 0.000000 0.000000 0.000000
					}
				}
			}
		}
	}
	JOINT rhip
	{
		OFFSET -0.060310 -0.090513 -0.013543
		CHANNELS 3 Zrotation Yrotation Xrotation
		JOINT rknee
		{
			OFFSET -0.043257 -0.383688 -0.004843
			CHANNELS 3 Zrotation Yrotation Xrotation
			JOINT rankle
			{
				OFFSET 0.019056 -0.420046 -0.034562
				CHANNELS 3 Zrotation Yrotation Xrotation
				JOINT rtoe
				{
					OFFSET -0.034840 -0.062106 0.130323
					CHANNELS 3 Zrotation Yrotation Xrotation
					End Site
					{
						OFFSET 0.000000 0.000000 0.000000
					}
				}
			}
		}
	}
	JOINT lowerback
	{
		OFFSET 0.004439 0.124404 -0.038385
		CHANNELS 3 Zrotation Yrotation Xrotation
		JOINT upperback
		{
			OFFSET 0.004488 0.137956 0.026820
			CHANNELS 3 Zrotation Yrotation Xrotation
			JOINT chest
			{
				OFFSET -0.002265 0.056032 0.002855
				CHANNELS 3 Zrotation Yrotation Xrotation
				JOINT lowerneck
				{
					OFFSET -0.013390 0.211636 -0.033468
					CHANNELS 3 Zrotation Yrotation Xrotation
					JOINT upperneck
					{
						OFFSET 0.010113 0.088937 0.050410
						CHANNELS 3 Zrotation Yrotation Xrotation
						End Site
						{
							OFFSET 0.000000 0.000000 0.000000
						}
					}
				}
				JOINT lclavicle
				{
					OFFSET 0.071702 0.114000 -0.018898
					CHANNELS 3 Zrotation Yrotation Xrotation
					JOINT lshoulder
					{
						OFFSET 0.122921 0.045205 -0.019046
						CHANNELS 3 Zrotation Yrotation Xrotation
						JOINT lelbow
						{
							OFFSET 0.255332 -0.015649 -0.022946
							CHANNELS 3 Zrotation Yrotation Xrotation
							JOINT lwrist
							{
								OFFSET 0.265709 0.012698 -0.007375
								CHANNELS 3 Zrotation Yrotation Xrotation
								End Site
								{
									OFFSET 0.000000 0.000000 0.000000
								}
							}
						}
					}
				}
				JOINT rclavicle
				{
					OFFSET -0.082954 0.112472 -0.023707
					CHANNELS 3 Zrotation Yrotation Xrotation
					JOINT rshoulder
					{
						OFFSET -0.113228 0.046853 -0.008472
						CHANNELS 3 Zrotation Yrotation Xrotation
						JOINT relbow
						{
							OFFSET -0.260127 -0.014369 -0.031269
							CHANNELS 3 Zrotation Yrotation Xrotation
							JOINT rwrist
							{
								OFFSET -0.269108 0.006794 -0.006027
								CHANNELS 3 Zrotation Yrotation Xrotation
								End Site
								{
									OFFSET 0.000000 0.000000 0.000000
								}
							}
						}
					}
				}
			}
		}
	}
}
MOTION
Frames: 17
Frame Time: 0.033333
-1.008275 -0.646138 0.987790 90.423757 1.932628 87.796152 -0.623959 -0.861424 5.600381 -2.444272 -5.407735 -0.536729 4.141520 8.161862 -22.100895 0.000000 -0.000000 0.000000 0.944475 -1.693522 2.772184 -0.393805 -4.393864 3.748634 3.404849 -4.857964 -10.458673 0.000000 -0.000000 0.000000 -0.110503 0.741310 5.918613 2.115790 -3.004642 3.305668 1.564615 -1.376928 -0.230231 2.285905 3.262190 -12.929945 2.192146 -2.681097 -9.880064 -23.014855 -0.944604 4.530552 -57.503237 -3.118817 20.908276 -20.074034 -53.016957 45.346904 -19.990524 -16.962554 -13.347105 23.154146 4.903541 4.802053 56.776426 4.149183 20.232275 3.536863 37.894920 22.459516 16.884482 8.236783 -4.226401 
-1.009203 -0.646199 0.987837 90.293859 1.931178 87.951654 -0.600782 -0.998317 5.373367 -2.499669 -5.426618 -0.518339 4.043914 8.382706 -22.125344 0.000000 -0.000000 0.000000 0.987833 -1.434703 2.545592 -0.388758 -4.130805 3.693542 3.751159 -5.250862 -10.487194 0.000000 -0.000000 0.000000 -0.202921 0.536130 5.740222 2.086995 -2.850715 3.181288 1.618051 -1.330022 0.116623 2.392682 3.305055 -13.310841 1.933944 -2.726448 -9.633286 -22.711245 -1.001862 4.582981 -57.913925 -3.385956 20.991116 -19.484237 -52.700054 45.544435 -19.135385 -17.039823 -13.037432 23.048183 4.995632 4.650763 57.075695 4.177395 20.382630 3.081560 37.655428 21.906487 15.086601 8.589301 -4.242571 
-1.010075 -0.646247 0.988041 89.987360 1.916962 88.053978 -0.592473 -1.041581 5.214156 -2.568774 -5.526719 -0.492800 4.232592 8.741831 -22.132667 0.000000 -0.000000 0.000000 1.131042 -1.342716 2.268976 -0.654642 -3.872071 3.792227 3.740622 -5.266254 -10.460121 0.000000 -0.000000 0.000000 -0.244613 0.540802 5.669680 2.059573 -2.777881 3.044295 1.565239 -1.297831 0.238944 2.472044 3.365002 -13.285244 1.892264 -2.722227 -9.630250 -22.596200 -0.910415 4.709641 -58.086349 -3.452517 20.929277 -18.781674 -52.436961 44.661398 -17.897363 -17.108716 -13.892624 23.127449 4.963880 4.625940 57.388304 4.302369 20.503355 2.636656 37.238834 21.402327 13.025732 8.944387 -3.741057 
-1.011224 -0.646334 0.988130 89.450919 1.901466 88.196534 -0.611732 -1.028653 5.066795 -2.580847 -5.232476 -0.583306 4.299322 8.938616 -22.110413 0.000000 -0.000000 0.000000 1.202971 -1.207541 2.165137 -0.792706 -3.696077 3.472854 3.824470 -5.088686 -10.264811 0.000000 -0.000000 0.000000 -0.240195 0.571497 5.641984 1.942416 -2.637619 2.830822 1.468584 -1.203953 0.286959 2.605927 3.455474 -13.187138 1.914566 -2.595278 -9.513897 -22.627902 -0.638070 4.811712 -58.013478 -3.299442 20.673486 -17.735831 -52.351877 43.030542 -17.176405 -17.176655 -14.504797 23.308509 4.839237 4.575828 57.735679 4.404777 20.653000 2.274055 36.703258 21.110606 12.614782 8.884632 -3.501120 
-1.012350 -0.646403 0.988018 88.984117 1.857465 88.321003 -0.676442 -1.008940 4.899253 -2.540165 -4.974687 -0.665833 4.337917 9.069068 -22.036940 0.000000 -0.000000 0.000000 1.186749 -0.997636 1.956516 -0.834159 -3.623558 3.386368 3.858459 -4.953896 -10.186860 0.000000 -0.000000 0.000000 -0.251645 0.591514 5.782076 1.818749 -2.449028 2.523266 1.415703 -1.119079 0.292990 2.716342 3.563275 -13.158434 1.897636 -2.494730 -9.402918 -22.661069 -0.382848 4.806984 -57.938616 -3.157396 20.446623 -16.958044 -52.334623 41.931112 -16.995764 -17.214209 -14.686525 23.434110 4.747363 4.557416 57.907549 4.455605 20.785137 2.140856 36.483870 20.976480 12.529083 8.831537 -3.457987 
-1.013835 -0.646574 0.987811 88.357856 1.828586 88.455391 -0.726919 -0.950824 4.700791 -2.462289 -4.683553 -0.803848 4.372095 9.232390 -21.904869 0.000000 -0.000000 0.000000 1.172658 -0.698876 1.658475 -0.845549 -3.492111 3.345181 3.877767 -4.800879 -10.105484 0.000000 -0.000000 0.000000 -0.266555 0.652787 5.901427 1.669911 -2.174902 2.236941 1.385709 -1.015603 0.350532 2.857818 3.733974 -13.189757 1.847009 -2.356458 -9.301881 -22.759859 -0.144845 4.776584 -57.935606 -3.066545 20.071643 -15.451390 -52.094753 40.098862 -16.417691 -17.046316 -14.660130 23.609416 4.690682 4.549260 58.013520 4.543862 20.909468 2.050616 36.254946 20.856076 12.054927 8.828697 -3.431752 
-1.014619 -0.646801 0.987852 87.917612 1.876864 88.567706 -0.682290 -0.828075 4.574927 -2.436985 -4.552309 -0.889358 4.381824 9.373672 -21.850217 0.000000 -0.000000 0.000000 1.219475 -0.573334 1.531297 -0.825659 -3.276769 3.165939 3.912623 -4.686930 -9.942399 0.000000 -0.000000 0.000000 -0.208531 0.661997 5.962496 1.566019 -2.014972 1.969033 1.388247 -0.923520 0.369822 2.883404 3.764622 -13.164362 1.866503 -2.083499 -9.203803 -22.826440 0.020440 4.699889 -58.173031 -2.973068 19.686357 -13.640911 -51.287446 38.164302 -14.623622 -16.511377 -14.255126 23.657478 4.642292 4.557510 58.133616 4.514917 20.943330 2.108491 35.981294 20.934886 10.847688 8.950574 -3.386280 
-1.015413 -0.646689 0.988035 87.568937 1.931523 88.629406 -0.617933 -0.575302 4.470144 -2.429863 -4.582453 -0.893673 4.363622 9.488609 -21.883134 0.000000 -0.000000 0.000000 1.254374 -0.575575 1.435333 -0.789621 -3.029799 3.033014 4.041829 -4.570584 -9.854692 0.000000 -0.000000 0.000000 -0.123312 0.638022 6.209547 1.467182 -1.915937 1.544742 1.429344 -0.871254 0.385022 2.797928 3.726651 -13.176153 1.916762 -1.712011 -9.020071 -22.920991 0.154492 4.492092 -58.513349 -2.845460 19.293112 -11.791772 -49.858393 36.172167 -11.000045 -15.590578 -13.121671 23.679168 4.620833 4.483405 58.178293 4.420170 20.875468 2.372720 35.561748 21.032797 8.837516 9.201956 -3.243542 
-1.016463 -0.646428 0.988188 87.291557 1.964040 88.674075 -0.579361 -0.318885 4.327793 -2.417399 -4.649550 -0.820240 4.358474 9.590893 -21.936874 0.000000 -0.000000 0.000000 1.283131 -0.635821 1.278196 -0.773543 -2.793152 3.036592 4.127971 -4.488989 -9.836810 0.000000 -0.000000 0.000000 -0.074502 0.636628 6.428076 1.399453 -1.887646 1.266247 1.486019 -0.881671 0.462933 2.651303 3.726289 -13.313898 1.954031 -1.337806 -8.947839 -23.076868 0.185034 4.252098 -58.723328 -2.767487 18.839975 -9.921123 -48.349147 34.062786 -7.280995 -14.559440 -11.693836 23.716242 4.683146 4.336014 58.109357 4.406169 20.750823 2.675586 35.173106 21.047605 6.868960 9.400770 -3.190735 
-1.017909 -0.646014 0.988137 87.006482 1.971385 88.723650 -0.583009 -0.025624 4.113807 -2.390308 -4.709993 -0.678208 4.366695 9.703467 -21.954751 0.000000 -0.000000 0.000000 1.295987 -0.673927 1.050282 -0.779370 -2.561987 3.138979 4.165742 -4.419888 -9.830779 0.000000 -0.000000 0.000000 -0.020046 0.618933 6.744555 1.313214 -1.911068 0.951467 1.502765 -0.893220 0.508273 2.514426 3.736250 -13.304373 2.009250 -0.964495 -9.033910 -23.263563 0.077426 4.043278 -58.609166 -2.656857 18.244390 -7.948851 -46.473890 31.926422 -3.768089 -13.640347 -9.731660 23.734378 4.786505 4.199230 58.043571 4.356296 20.553435 2.906815 34.921386 20.979659 4.708423 9.609817 -3.246357 
-1.018924 -0.645674 0.987987 86.781688 2.006927 88.726187 -0.545690 0.199339 4.012967 -2.396681 -4.756053 -0.597237 4.355267 9.808192 -21.980419 0.000000 -0.000000 0.000000 1.344635 -0.671032 0.841897 -0.796493 -2.353732 3.374149 4.158003 -4.400526 -9.921588 0.000000 -0.000000 0.000000 0.065514 0.626380 6.976728 1.264479 -1.916342 0.803773 1.480564 -0.884905 0.513262 2.463607 3.746164 -13.232734 2.035806 -0.820195 -9.137552 -23.389904 -0.100230 3.931606 -58.268845 -2.628525 17.756156 -6.745815 -44.976859 30.530213 -1.920113 -13.225468 -8.432751 23.747029 4.841217 4.156116 57.997723 4.253855 20.331637 2.831595 35.023016 20.650603 3.115122 9.841316 -3.326850 
-1.019492 -0.645443 0.987910 86.647351 2.164865 88.737483 -0.343414 0.378837 3.906549 -2.458087 -4.864262 -0.406637 4.289381 9.945149 -22.249433 0.000000 -0.000000 0.000000 1.596421 -0.772046 0.497873 -0.900323 -1.986230 3.959347 4.079085 -4.531670 -10.362668 0.000000 -0.000000 0.000000 0.204976 0.603919 7.031789 1.322133 -1.971774 0.807786 1.473298 -0.907332 0.513831 2.428524 3.771759 -13.065029 2.024278 -0.658238 -9.262054 -23.531372 -0.251234 3.913485 -57.819527 -2.614086 17.282961 -5.766502 -43.768438 29.028895 -0.617852 -12.897411 -8.081471 23.784152 4.875351 4.166759 57.829615 4.145160 20.143390 2.685387 35.294745 20.159077 1.540387 10.156168 -3.452641 
-1.020358 -0.645514 0.988075 86.292812 2.389860 88.869287 -0.096335 0.507536 3.543233 -2.516533 -4.878680 0.090779 4.154393 10.269716 -22.840728 0.000000 -0.000000 0.000000 2.090670 -0.722194 -0.655881 -1.228429 -1.613296 5.753738 3.959366 -4.791463 -11.657877 0.000000 -0.000000 0.000000 0.213955 0.555565 7.015450 1.500012 -1.895084 0.713559 1.546567 -0.918683 0.532216 2.524928 4.001925 -12.936056 1.902189 -0.554700 -9.171654 -23.543611 -0.235956 3.872806 -57.411764 -2.519608 16.955125 -5.025979 -42.988772 27.643622 0.092205 -12.592437 -8.289717 23.874457 4.862723 4.126148 57.524136 4.111839 20.135555 2.601212 35.392909 19.882996 0.823408 10.263399 -3.716550 
-1.021964 -0.645929 0.988637 85.631615 2.568178 89.165815 -0.025166 0.509841 2.868989 -2.456405 -4.711754 0.806961 4.178022 10.900564 -23.606241 0.000000 -0.000000 0.000000 2.596136 -0.586120 -2.853625 -1.554082 -1.801719 8.949089 3.497707 -5.504571 -13.552003 0.000000 -0.000000 0.000000 -0.053721 0.511403 7.055576 1.759876 -1.622975 0.398674 1.734153 -0.918678 0.596933 2.758482 4.449960 -13.045863 1.667116 -0.514817 -8.916658 -23.383119 0.017426 3.739779 -57.013143 -2.373476 16.798515 -4.710842 -42.603686 26.944937 0.554284 -12.359328 -8.423061 24.051330 4.776779 3.986471 57.163277 4.222377 20.252088 2.436892 35.256831 19.706200 0.594333 10.225844 -3.795300 
-1.023419 -0.646189 0.989011 85.227739 2.654190 89.288372 -0.140196 0.527276 2.464119 -2.326676 -4.568953 1.341349 4.494142 11.418853 -24.173376 0.000000 -0.000000 0.000000 2.389034 -1.137688 -5.142244 -1.156120 -4.136948 12.817966 2.457861 -7.236950 -15.738570 0.000000 -0.000000 0.000000 -0.330287 0.365587 7.426261 1.956830 -1.457329 -0.023365 1.902591 -0.964122 0.622637 2.973587 4.852267 -13.136159 1.477653 -0.445677 -8.723348 -23.041986 0.231140 3.763850 -56.542839 -2.180823 16.634159 -4.798386 -42.768047 26.921383 0.711692 -12.198896 -8.727367 24.151695 4.780138 3.877983 57.005853 4.322080 20.134054 2.012673 35.235254 19.088085 0.697132 10.036197 -3.870906 
-1.022957 -0.646102 0.988404 85.643446 2.609356 88.672008 -0.220895 0.752443 2.997150 -2.440099 -4.930448 1.769653 4.677125 11.423613 -24.758193 0.000000 -0.000000 0.000000 1.060459 -2.671637 -6.148066 -0.433822 -9.068158 16.861985 2.106465 -10.255174 -18.144235 0.000000 -0.000000 0.000000 -0.427082 0.030947 8.468212 2.001964 -1.606953 -0.374410 1.956452 -1.138552 0.726676 3.050656 5.130502 -13.220472 1.282027 -0.427307 -8.634495 -22.703318 0.254573 3.941895 -55.774472 -2.141130 16.263775 -5.379101 -43.265575 27.442955 0.588380 -12.320935 -9.208214 24.293747 4.898129 3.632536 56.863364 4.251142 19.722209 1.562101 35.413800 17.985111 0.793246 9.970108 -3.545959 
-1.021201 -0.646305 0.986440 86.291752 2.318948 87.964503 -0.295310 0.960030 3.493802 -2.968748 -5.381002 2.577381 4.907534 11.262308 -25.423661 0.000000 -0.000000 0.000000 -0.676600 -4.108702 -6.646344 -0.553101 -12.760195 21.592087 2.573042 -12.797964 -19.540770 0.000000 -0.000000 0.000000 -0.645443 -0.119084 9.350046 2.007240 -1.782291 -0.653165 1.895759 -1.320768 0.866963 2.982361 5.202289 -13.059399 1.077810 -0.510778 -8.553069 -22.474071 0.263769 4.089556 -54.705659 -2.255330 15.931388 -6.241860 -43.785011 28.240214 0.710633 -12.558429 -9.631739 24.670317 4.788925 3.341702 56.490518 3.990483 19.423162 1.260381 35.882463 16.952016 0.446992 10.132150 -2.910467 
